<svg xmlns="http://www.w3.org/2000/svg" version="1.0" width="1024.000000pt" height="1024.000000pt" viewBox="0 0 1024.000000 1024.000000" preserveAspectRatio="xMidYMid meet">

<g transform="translate(0.000000,1024.000000) scale(0.100000,-0.100000)" fill="#000000" stroke="none">
<path d="M0 5120 l0 -5120 5120 0 5120 0 0 5120 0 5120 -5120 0 -5120 0 0 -5120z m5175 3930 c89 -60 555 -338 830 -495 262 -150 559 -322 700 -405 116 -68 248 -143 460 -263 94 -52 269 -152 390 -222 121 -70 303 -172 405 -227 102 -55 205 -111 228 -125 24 -14 70 -38 102 -54 l59 -29 4 -1862 c2 -1025 7 -1872 11 -1884 6 -17 2 -23 -26 -35 -45 -18 -275 -150 -373 -213 -44 -29 -120 -74 -170 -101 -49 -26 -189 -107 -310 -180 -121 -72 -312 -185 -425 -250 -113 -65 -272 -159 -354 -208 -83 -49 -204 -119 -270 -155 -66 -35 -165 -92 -221 -127 -55 -34 -156 -95 -225 -135 -69 -41 -220 -130 -337 -199 -465 -276 -543 -321 -563 -321 -9 0 -51 21 -95 46 -44 25 -143 80 -220 121 -77 42 -181 102 -231 133 -49 31 -166 101 -260 155 -93 54 -236 138 -319 188 -82 49 -258 152 -390 227 -336 193 -712 415 -990 585 -88 54 -205 125 -260 158 -55 33 -145 89 -200 125 -55 36 -145 89 -199 118 l-100 53 -4 1883 -5 1883 189 104 c104 58 218 121 254 141 36 20 112 62 170 92 58 31 178 100 267 154 89 55 211 125 270 158 59 32 155 86 213 121 58 34 177 102 265 150 88 49 255 142 370 209 116 66 251 142 300 170 84 46 181 100 525 296 141 80 278 159 383 222 34 20 69 37 77 37 8 1 42 -17 75 -39z"/>
<path d="M5055 8641 c-44 -31 -274 -167 -425 -251 -105 -59 -174 -98 -495 -285 -121 -71 -285 -165 -365 -210 -80 -45 -210 -119 -290 -165 -180 -104 -344 -196 -475 -267 -55 -30 -164 -91 -243 -135 l-142 -81 37 -17 c21 -9 110 -62 198 -117 88 -55 198 -121 244 -148 47 -26 112 -64 145 -85 34 -20 144 -81 246 -135 102 -54 228 -124 280 -155 52 -31 149 -85 215 -120 66 -34 161 -86 210 -115 50 -29 209 -119 355 -200 146 -81 306 -171 355 -200 50 -29 112 -65 139 -80 l49 -28 61 33 c56 30 142 79 416 238 52 30 138 81 190 113 52 32 151 89 220 127 69 38 226 128 350 200 124 72 267 155 318 184 51 29 190 111 310 182 306 182 541 316 552 316 21 0 8 20 -22 36 -18 9 -80 44 -138 78 -144 85 -272 157 -350 196 -36 17 -117 66 -180 108 -63 42 -180 110 -260 152 -136 71 -245 135 -400 235 -36 23 -100 58 -143 78 -43 20 -131 72 -195 115 -64 43 -187 116 -272 162 -164 88 -401 232 -421 256 -16 20 -28 17 -74 -15z m429 -237 c3 -9 6 -26 6 -38 0 -13 10 -36 22 -51 l22 -28 -22 -17 c-11 -9 -67 -43 -124 -75 -57 -32 -224 -130 -373 -218 -542 -321 -603 -356 -748 -438 -81 -46 -197 -114 -258 -152 -62 -37 -146 -86 -188 -109 -42 -23 -107 -60 -146 -83 -38 -24 -110 -64 -160 -91 -49 -26 -107 -58 -127 -71 -21 -13 -40 -23 -42 -23 -3 0 -25 14 -50 30 -25 17 -65 40 -90 51 -25 11 -46 22 -46 24 0 2 30 21 68 41 113 63 282 163 392 234 58 37 138 84 179 104 40 21 123 68 185 105 145 89 279 167 392 229 50 27 169 97 265 154 96 58 226 133 289 168 63 35 131 73 150 85 48 30 302 171 320 178 32 12 78 7 84 -9z m447 -279 c26 -25 64 -52 83 -62 20 -9 36 -22 36 -28 0 -6 -26 -23 -57 -39 -32 -15 -94 -49 -138 -75 -44 -26 -127 -75 -185 -108 -58 -33 -231 -134 -385 -224 -154 -89 -323 -187 -375 -217 -52 -30 -153 -89 -225 -130 -199 -115 -432 -250 -515 -300 -41 -25 -118 -69 -170 -97 -52 -29 -115 -64 -139 -78 l-44 -26 -41 35 c-22 19 -62 45 -89 58 l-50 23 69 41 c38 22 123 71 189 110 66 39 181 105 255 148 74 42 214 122 310 179 96 56 218 126 270 155 52 29 138 78 190 110 52 31 160 94 240 140 80 46 161 93 181 106 20 12 92 54 162 93 124 69 215 127 311 196 26 19 53 35 59 35 5 0 32 -20 58 -45z m488 -259 c37 -20 51 -39 61 -82 12 -51 -2 -62 -210 -173 -96 -52 -249 -138 -340 -191 -91 -53 -210 -121 -265 -150 -55 -30 -154 -86 -220 -125 -66 -40 -172 -101 -235 -137 -63 -36 -171 -97 -240 -136 -241 -136 -314 -178 -427 -245 -63 -37 -146 -83 -184 -103 l-69 -34 -22 20 c-25 23 -119 70 -141 70 -34 0 -23 16 30 45 145 79 321 180 348 200 35 26 186 112 440 250 99 54 207 115 240 135 55 34 190 113 655 383 197 115 520 287 538 287 7 0 25 -6 41 -14z m473 -338 c24 -20 56 -42 71 -50 l28 -14 -23 -21 c-13 -11 -81 -51 -153 -88 -71 -37 -155 -82 -185 -100 -30 -18 -147 -83 -260 -145 -113 -62 -286 -159 -385 -215 -225 -128 -469 -264 -740 -413 -115 -64 -268 -151 -339 -194 l-129 -78 -53 41 c-29 22 -73 48 -98 57 l-44 18 116 68 c150 87 360 205 570 320 105 58 276 154 577 326 94 53 215 122 270 152 55 30 173 97 263 147 90 50 203 111 250 136 48 24 114 62 147 84 54 37 60 39 67 22 3 -10 26 -34 50 -53z"/>
<path d="M7875 7010 c-118 -62 -756 -423 -1165 -660 -102 -59 -237 -135 -300 -170 -63 -35 -126 -71 -140 -80 -38 -27 -367 -213 -440 -250 -36 -18 -162 -90 -280 -160 -290 -171 -435 -250 -459 -250 -27 0 -184 76 -301 145 -52 32 -149 86 -215 122 -66 36 -190 105 -275 153 -414 233 -553 311 -645 362 -232 129 -659 372 -774 440 -141 83 -238 138 -396 227 -60 34 -148 84 -195 111 l-85 49 -3 -702 c-1 -386 0 -712 3 -724 3 -13 10 -23 15 -23 18 0 405 -223 785 -453 28 -16 95 -56 150 -87 55 -31 168 -96 250 -145 83 -48 249 -145 370 -215 121 -69 328 -190 460 -267 132 -77 326 -187 430 -243 271 -146 293 -159 358 -198 l58 -36 32 19 c18 10 57 37 87 59 31 23 116 77 190 120 74 44 209 123 300 176 91 53 260 150 375 215 196 111 506 291 910 528 253 148 337 197 475 274 69 39 198 112 288 162 89 51 176 97 192 103 18 6 32 19 35 31 6 32 12 1417 5 1416 -3 -1 -45 -22 -95 -49z"/>
<path d="M7915 5396 c-62 -28 -268 -144 -393 -220 -51 -31 -119 -69 -150 -85 -50 -26 -354 -201 -612 -354 -47 -27 -135 -78 -197 -113 -61 -35 -143 -83 -181 -108 -39 -25 -94 -57 -124 -72 -29 -15 -115 -64 -191 -110 -76 -46 -229 -135 -340 -198 -111 -63 -263 -151 -337 -196 -316 -192 -298 -183 -333 -169 -18 7 -63 32 -102 56 -38 24 -110 64 -158 91 -397 214 -474 256 -497 271 -14 10 -50 31 -80 46 -30 15 -106 59 -169 97 -63 38 -146 85 -185 105 -39 19 -82 43 -96 53 -25 17 -370 217 -502 291 -37 20 -80 46 -95 56 -15 11 -68 41 -118 68 -92 49 -101 55 -240 142 -44 27 -136 83 -205 123 -69 40 -161 94 -205 120 -101 60 -142 80 -177 91 l-28 8 0 -155 0 -154 54 -24 c30 -13 88 -47 130 -75 42 -29 152 -94 244 -145 92 -51 212 -123 267 -159 55 -35 168 -103 250 -150 83 -46 237 -137 343 -201 107 -64 228 -135 270 -158 42 -23 169 -96 282 -164 113 -67 229 -134 258 -148 28 -14 154 -87 280 -162 125 -75 265 -156 312 -182 47 -25 110 -62 139 -83 32 -22 59 -35 65 -30 6 4 38 28 71 53 92 69 231 160 325 213 47 26 132 78 190 115 58 37 200 120 315 185 116 64 262 147 325 184 63 38 147 85 185 106 39 21 138 80 220 130 83 51 186 113 230 138 128 72 288 164 455 260 85 49 190 107 232 128 42 21 115 61 163 90 48 28 101 57 120 65 33 13 33 14 40 96 3 46 5 122 3 170 l-3 88 -50 -24z"/>
<path d="M7851 4820 c-46 -22 -131 -69 -190 -104 -165 -98 -477 -282 -681 -401 -102 -60 -266 -156 -365 -215 -203 -121 -622 -363 -735 -425 -41 -22 -106 -61 -145 -86 -38 -25 -140 -88 -225 -139 -85 -51 -212 -130 -282 -176 -110 -72 -131 -82 -152 -74 -13 5 -89 47 -168 93 -78 46 -240 138 -358 204 -246 137 -522 294 -690 393 -63 37 -142 83 -175 101 -170 92 -877 513 -974 578 -86 59 -479 281 -496 281 -13 0 -15 -25 -15 -169 l0 -168 58 -29 c153 -79 641 -362 927 -539 55 -34 163 -98 240 -142 160 -92 231 -134 750 -443 99 -59 226 -132 283 -164 57 -31 158 -90 225 -130 67 -40 160 -95 207 -121 47 -26 110 -65 140 -85 l56 -38 39 30 c165 123 569 373 1175 725 124 72 324 189 445 260 476 280 1056 599 1198 661 l27 12 0 175 c0 205 8 196 -119 135z"/>
<path d="M7817 4222 c-73 -38 -193 -105 -267 -148 -163 -96 -277 -162 -367 -210 -37 -20 -119 -68 -182 -106 -64 -39 -199 -118 -301 -176 -102 -58 -207 -120 -235 -138 -27 -17 -144 -87 -260 -154 -115 -68 -253 -149 -305 -180 -52 -31 -174 -103 -270 -160 -96 -56 -236 -142 -310 -190 -182 -117 -204 -130 -226 -130 -10 0 -93 42 -184 94 -91 51 -201 113 -245 136 -88 47 -196 110 -415 240 -80 47 -224 133 -320 190 -96 56 -234 138 -305 180 -72 43 -151 88 -175 100 -25 12 -83 46 -130 75 -47 29 -161 96 -255 150 -169 97 -331 194 -475 286 -41 26 -113 67 -160 92 -47 24 -112 59 -144 76 -32 17 -65 31 -72 31 -12 0 -14 -50 -13 -277 l0 -278 121 -70 c66 -38 205 -120 307 -181 227 -134 839 -492 1166 -679 132 -76 256 -148 275 -160 19 -12 91 -52 160 -90 69 -37 195 -109 281 -161 86 -51 216 -123 290 -159 73 -37 166 -89 206 -116 79 -54 85 -56 102 -35 12 14 229 144 536 321 94 54 229 132 300 175 158 93 365 213 540 311 72 40 193 109 270 154 77 45 268 155 425 245 157 90 348 200 425 245 77 45 194 110 259 146 l119 63 -7 126 c-3 69 -6 194 -6 278 0 98 -4 152 -10 152 -6 0 -70 -31 -143 -68z"/>
</g>
</svg>